<mxfile host="app.diagrams.net" modified="2024-02-29T14:08:01.308Z" agent="Mozilla/5.0 (Windows NT 10.0; Win64; x64) AppleWebKit/537.36 (KHTML, like Gecko) Chrome/122.0.0.0 Safari/537.36 Edg/122.0.0.0" etag="62CqC2UOYYqeVKvsftOJ" version="23.1.8" type="github">
  <diagram name="第 1 页" id="VxEnm2vC9pFeRU8R8G8M">
    <mxGraphModel dx="1754" dy="857" grid="1" gridSize="10" guides="1" tooltips="1" connect="1" arrows="1" fold="1" page="1" pageScale="1" pageWidth="827" pageHeight="1169" math="0" shadow="0">
      <root>
        <mxCell id="0" />
        <mxCell id="1" parent="0" />
        <mxCell id="wwV5foe9snUfwAbhZovG-1" value="APK" style="shape=note;whiteSpace=wrap;html=1;backgroundOutline=1;darkOpacity=0.05;" parent="1" vertex="1">
          <mxGeometry x="30" y="240" width="80" height="100" as="geometry" />
        </mxCell>
        <mxCell id="wwV5foe9snUfwAbhZovG-5" value="APK" style="shape=note;whiteSpace=wrap;html=1;backgroundOutline=1;darkOpacity=0.05;" parent="1" vertex="1">
          <mxGeometry x="50" y="250" width="80" height="100" as="geometry" />
        </mxCell>
        <mxCell id="wwV5foe9snUfwAbhZovG-6" value="APK" style="shape=note;whiteSpace=wrap;html=1;backgroundOutline=1;darkOpacity=0.05;" parent="1" vertex="1">
          <mxGeometry x="70" y="260" width="80" height="100" as="geometry" />
        </mxCell>
        <mxCell id="wwV5foe9snUfwAbhZovG-7" value="应用" style="shape=note;whiteSpace=wrap;html=1;backgroundOutline=1;darkOpacity=0.05;" parent="1" vertex="1">
          <mxGeometry x="90" y="270" width="80" height="100" as="geometry" />
        </mxCell>
        <mxCell id="wwV5foe9snUfwAbhZovG-8" value="分析1&lt;br&gt;&lt;br&gt;&lt;br&gt;&lt;br&gt;&lt;br&gt;&lt;br&gt;&lt;br&gt;&lt;div&gt;&lt;br&gt;&lt;/div&gt;" style="rounded=1;whiteSpace=wrap;html=1;" parent="1" vertex="1">
          <mxGeometry x="240" y="330" width="120" height="130" as="geometry" />
        </mxCell>
        <mxCell id="wwV5foe9snUfwAbhZovG-11" value="" style="rounded=1;whiteSpace=wrap;html=1;" parent="1" vertex="1">
          <mxGeometry x="230" y="70" width="430" height="220" as="geometry" />
        </mxCell>
        <mxCell id="wwV5foe9snUfwAbhZovG-15" value="" style="rounded=1;whiteSpace=wrap;html=1;" parent="1" vertex="1">
          <mxGeometry x="250" y="360" width="100" height="90" as="geometry" />
        </mxCell>
        <mxCell id="wwV5foe9snUfwAbhZovG-14" value="应用1" style="shape=note;whiteSpace=wrap;html=1;backgroundOutline=1;darkOpacity=0.05;size=15;" parent="1" vertex="1">
          <mxGeometry x="280" y="380" width="40" height="50" as="geometry" />
        </mxCell>
        <mxCell id="wwV5foe9snUfwAbhZovG-20" value="" style="rounded=1;whiteSpace=wrap;html=1;" parent="1" vertex="1">
          <mxGeometry x="240" y="210" width="260" height="60" as="geometry" />
        </mxCell>
        <mxCell id="wwV5foe9snUfwAbhZovG-25" value="第三方库1" style="shape=card;whiteSpace=wrap;html=1;size=20;" parent="1" vertex="1">
          <mxGeometry x="250" y="220" width="70" height="40" as="geometry" />
        </mxCell>
        <mxCell id="wwV5foe9snUfwAbhZovG-26" value="第三方库2" style="shape=card;whiteSpace=wrap;html=1;size=20;" parent="1" vertex="1">
          <mxGeometry x="334" y="220" width="66" height="40" as="geometry" />
        </mxCell>
        <mxCell id="wwV5foe9snUfwAbhZovG-27" value="第三方库3" style="shape=card;whiteSpace=wrap;html=1;size=20;" parent="1" vertex="1">
          <mxGeometry x="413.5" y="220" width="66.5" height="40" as="geometry" />
        </mxCell>
        <mxCell id="wwV5foe9snUfwAbhZovG-30" value="分析2&lt;br&gt;&lt;br&gt;&lt;br&gt;&lt;br&gt;&lt;br&gt;&lt;br&gt;&lt;br&gt;&lt;div&gt;&lt;br&gt;&lt;/div&gt;" style="rounded=1;whiteSpace=wrap;html=1;" parent="1" vertex="1">
          <mxGeometry x="380" y="330" width="120" height="130" as="geometry" />
        </mxCell>
        <mxCell id="wwV5foe9snUfwAbhZovG-31" value="" style="rounded=1;whiteSpace=wrap;html=1;" parent="1" vertex="1">
          <mxGeometry x="390" y="360" width="100" height="90" as="geometry" />
        </mxCell>
        <mxCell id="wwV5foe9snUfwAbhZovG-32" value="应用2" style="shape=note;whiteSpace=wrap;html=1;backgroundOutline=1;darkOpacity=0.05;size=15;" parent="1" vertex="1">
          <mxGeometry x="420" y="380" width="40" height="50" as="geometry" />
        </mxCell>
        <mxCell id="wwV5foe9snUfwAbhZovG-33" value="分析k&lt;br&gt;&lt;br&gt;&lt;br&gt;&lt;br&gt;&lt;br&gt;&lt;br&gt;&lt;br&gt;&lt;div&gt;&lt;br&gt;&lt;/div&gt;" style="rounded=1;whiteSpace=wrap;html=1;" parent="1" vertex="1">
          <mxGeometry x="530" y="330" width="120" height="130" as="geometry" />
        </mxCell>
        <mxCell id="wwV5foe9snUfwAbhZovG-34" value="" style="rounded=1;whiteSpace=wrap;html=1;" parent="1" vertex="1">
          <mxGeometry x="540" y="360" width="100" height="90" as="geometry" />
        </mxCell>
        <mxCell id="wwV5foe9snUfwAbhZovG-35" value="应用k" style="shape=note;whiteSpace=wrap;html=1;backgroundOutline=1;darkOpacity=0.05;size=15;" parent="1" vertex="1">
          <mxGeometry x="570" y="380" width="40" height="50" as="geometry" />
        </mxCell>
        <mxCell id="wwV5foe9snUfwAbhZovG-37" value="" style="endArrow=classic;html=1;rounded=0;entryX=0.5;entryY=1;entryDx=0;entryDy=0;entryPerimeter=0;" parent="1" target="wwV5foe9snUfwAbhZovG-25" edge="1">
          <mxGeometry width="50" height="50" relative="1" as="geometry">
            <mxPoint x="300" y="330" as="sourcePoint" />
            <mxPoint x="440" y="280" as="targetPoint" />
          </mxGeometry>
        </mxCell>
        <mxCell id="wwV5foe9snUfwAbhZovG-59" value="使用" style="edgeLabel;html=1;align=center;verticalAlign=middle;resizable=0;points=[];" parent="wwV5foe9snUfwAbhZovG-37" vertex="1" connectable="0">
          <mxGeometry x="-0.1086" y="3" relative="1" as="geometry">
            <mxPoint as="offset" />
          </mxGeometry>
        </mxCell>
        <mxCell id="wwV5foe9snUfwAbhZovG-38" value="" style="endArrow=classic;html=1;rounded=0;entryX=0.5;entryY=1;entryDx=0;entryDy=0;entryPerimeter=0;exitX=0.5;exitY=0;exitDx=0;exitDy=0;" parent="1" source="wwV5foe9snUfwAbhZovG-8" target="wwV5foe9snUfwAbhZovG-26" edge="1">
          <mxGeometry width="50" height="50" relative="1" as="geometry">
            <mxPoint x="310" y="370" as="sourcePoint" />
            <mxPoint x="310" y="270" as="targetPoint" />
          </mxGeometry>
        </mxCell>
        <mxCell id="wwV5foe9snUfwAbhZovG-60" value="使用" style="edgeLabel;html=1;align=center;verticalAlign=middle;resizable=0;points=[];" parent="wwV5foe9snUfwAbhZovG-38" vertex="1" connectable="0">
          <mxGeometry x="-0.0468" y="-3" relative="1" as="geometry">
            <mxPoint as="offset" />
          </mxGeometry>
        </mxCell>
        <mxCell id="wwV5foe9snUfwAbhZovG-39" value="" style="endArrow=classic;html=1;rounded=0;exitX=0.5;exitY=0;exitDx=0;exitDy=0;entryX=0.5;entryY=1;entryDx=0;entryDy=0;entryPerimeter=0;" parent="1" source="wwV5foe9snUfwAbhZovG-30" target="wwV5foe9snUfwAbhZovG-25" edge="1">
          <mxGeometry width="50" height="50" relative="1" as="geometry">
            <mxPoint x="390" y="330" as="sourcePoint" />
            <mxPoint x="440" y="280" as="targetPoint" />
          </mxGeometry>
        </mxCell>
        <mxCell id="wwV5foe9snUfwAbhZovG-61" value="使用" style="edgeLabel;html=1;align=center;verticalAlign=middle;resizable=0;points=[];" parent="wwV5foe9snUfwAbhZovG-39" vertex="1" connectable="0">
          <mxGeometry x="-0.1509" y="2" relative="1" as="geometry">
            <mxPoint as="offset" />
          </mxGeometry>
        </mxCell>
        <mxCell id="wwV5foe9snUfwAbhZovG-40" value="" style="endArrow=classic;html=1;rounded=0;exitX=0.5;exitY=0;exitDx=0;exitDy=0;entryX=0.5;entryY=1;entryDx=0;entryDy=0;entryPerimeter=0;" parent="1" source="wwV5foe9snUfwAbhZovG-30" target="wwV5foe9snUfwAbhZovG-27" edge="1">
          <mxGeometry width="50" height="50" relative="1" as="geometry">
            <mxPoint x="450" y="370" as="sourcePoint" />
            <mxPoint x="310" y="270" as="targetPoint" />
          </mxGeometry>
        </mxCell>
        <mxCell id="wwV5foe9snUfwAbhZovG-62" value="使用" style="edgeLabel;html=1;align=center;verticalAlign=middle;resizable=0;points=[];" parent="wwV5foe9snUfwAbhZovG-40" vertex="1" connectable="0">
          <mxGeometry x="-0.1579" y="-2" relative="1" as="geometry">
            <mxPoint as="offset" />
          </mxGeometry>
        </mxCell>
        <mxCell id="wwV5foe9snUfwAbhZovG-41" value="摘要知识库&lt;br&gt;&lt;br&gt;&lt;br&gt;&lt;br&gt;&lt;div&gt;&lt;br&gt;&lt;/div&gt;" style="rounded=1;whiteSpace=wrap;html=1;" parent="1" vertex="1">
          <mxGeometry x="240" y="80" width="400" height="90" as="geometry" />
        </mxCell>
        <mxCell id="wwV5foe9snUfwAbhZovG-43" value="" style="shape=note;whiteSpace=wrap;html=1;backgroundOutline=1;darkOpacity=0.05;size=14;" parent="1" vertex="1">
          <mxGeometry x="250" y="100" width="40" height="50" as="geometry" />
        </mxCell>
        <mxCell id="wwV5foe9snUfwAbhZovG-44" value="" style="shape=note;whiteSpace=wrap;html=1;backgroundOutline=1;darkOpacity=0.05;size=14;" parent="1" vertex="1">
          <mxGeometry x="260" y="110" width="40" height="50" as="geometry" />
        </mxCell>
        <mxCell id="wwV5foe9snUfwAbhZovG-45" value="" style="shape=note;whiteSpace=wrap;html=1;backgroundOutline=1;darkOpacity=0.05;size=14;" parent="1" vertex="1">
          <mxGeometry x="290" y="100" width="40" height="50" as="geometry" />
        </mxCell>
        <mxCell id="wwV5foe9snUfwAbhZovG-46" value="" style="shape=note;whiteSpace=wrap;html=1;backgroundOutline=1;darkOpacity=0.05;size=14;" parent="1" vertex="1">
          <mxGeometry x="300" y="110" width="40" height="50" as="geometry" />
        </mxCell>
        <mxCell id="wwV5foe9snUfwAbhZovG-47" value="" style="shape=note;whiteSpace=wrap;html=1;backgroundOutline=1;darkOpacity=0.05;size=14;" parent="1" vertex="1">
          <mxGeometry x="330" y="100" width="40" height="50" as="geometry" />
        </mxCell>
        <mxCell id="wwV5foe9snUfwAbhZovG-48" value="" style="shape=note;whiteSpace=wrap;html=1;backgroundOutline=1;darkOpacity=0.05;size=14;" parent="1" vertex="1">
          <mxGeometry x="340" y="110" width="40" height="50" as="geometry" />
        </mxCell>
        <mxCell id="wwV5foe9snUfwAbhZovG-49" value="摘要1" style="shape=note;whiteSpace=wrap;html=1;backgroundOutline=1;darkOpacity=0.05;size=14;" parent="1" vertex="1">
          <mxGeometry x="430" y="110" width="40" height="50" as="geometry" />
        </mxCell>
        <mxCell id="wwV5foe9snUfwAbhZovG-50" value="摘要2" style="shape=note;whiteSpace=wrap;html=1;backgroundOutline=1;darkOpacity=0.05;size=14;" parent="1" vertex="1">
          <mxGeometry x="500" y="110" width="40" height="50" as="geometry" />
        </mxCell>
        <mxCell id="wwV5foe9snUfwAbhZovG-51" value="摘要3" style="shape=note;whiteSpace=wrap;html=1;backgroundOutline=1;darkOpacity=0.05;size=14;" parent="1" vertex="1">
          <mxGeometry x="570" y="110" width="40" height="50" as="geometry" />
        </mxCell>
        <mxCell id="wwV5foe9snUfwAbhZovG-52" value="" style="endArrow=classic;html=1;rounded=0;exitX=0.5;exitY=0;exitDx=0;exitDy=0;exitPerimeter=0;entryX=0.5;entryY=1;entryDx=0;entryDy=0;entryPerimeter=0;" parent="1" source="wwV5foe9snUfwAbhZovG-25" target="wwV5foe9snUfwAbhZovG-49" edge="1">
          <mxGeometry width="50" height="50" relative="1" as="geometry">
            <mxPoint x="390" y="330" as="sourcePoint" />
            <mxPoint x="440" y="280" as="targetPoint" />
          </mxGeometry>
        </mxCell>
        <mxCell id="wwV5foe9snUfwAbhZovG-56" value="生成" style="edgeLabel;html=1;align=center;verticalAlign=middle;resizable=0;points=[];" parent="wwV5foe9snUfwAbhZovG-52" vertex="1" connectable="0">
          <mxGeometry x="-0.036" relative="1" as="geometry">
            <mxPoint as="offset" />
          </mxGeometry>
        </mxCell>
        <mxCell id="wwV5foe9snUfwAbhZovG-53" value="" style="endArrow=classic;html=1;rounded=0;exitX=0;exitY=0;exitDx=43;exitDy=0;exitPerimeter=0;entryX=0.5;entryY=1;entryDx=0;entryDy=0;entryPerimeter=0;" parent="1" source="wwV5foe9snUfwAbhZovG-26" target="wwV5foe9snUfwAbhZovG-50" edge="1">
          <mxGeometry width="50" height="50" relative="1" as="geometry">
            <mxPoint x="410" y="220" as="sourcePoint" />
            <mxPoint x="524" y="160" as="targetPoint" />
          </mxGeometry>
        </mxCell>
        <mxCell id="wwV5foe9snUfwAbhZovG-57" value="生成" style="edgeLabel;html=1;align=center;verticalAlign=middle;resizable=0;points=[];" parent="wwV5foe9snUfwAbhZovG-53" vertex="1" connectable="0">
          <mxGeometry x="-0.2" y="5" relative="1" as="geometry">
            <mxPoint as="offset" />
          </mxGeometry>
        </mxCell>
        <mxCell id="wwV5foe9snUfwAbhZovG-55" value="" style="endArrow=classic;html=1;rounded=0;exitX=0;exitY=0;exitDx=43.25;exitDy=0;exitPerimeter=0;entryX=0.5;entryY=1;entryDx=0;entryDy=0;entryPerimeter=0;" parent="1" source="wwV5foe9snUfwAbhZovG-27" target="wwV5foe9snUfwAbhZovG-51" edge="1">
          <mxGeometry width="50" height="50" relative="1" as="geometry">
            <mxPoint x="520" y="220" as="sourcePoint" />
            <mxPoint x="580" y="160" as="targetPoint" />
          </mxGeometry>
        </mxCell>
        <mxCell id="wwV5foe9snUfwAbhZovG-58" value="生成" style="edgeLabel;html=1;align=center;verticalAlign=middle;resizable=0;points=[];" parent="wwV5foe9snUfwAbhZovG-55" vertex="1" connectable="0">
          <mxGeometry x="-0.0267" y="2" relative="1" as="geometry">
            <mxPoint as="offset" />
          </mxGeometry>
        </mxCell>
        <mxCell id="wwV5foe9snUfwAbhZovG-64" value="" style="endArrow=none;dashed=1;html=1;rounded=0;exitX=0.5;exitY=0;exitDx=0;exitDy=0;entryX=1;entryY=0.5;entryDx=0;entryDy=0;entryPerimeter=0;" parent="1" source="wwV5foe9snUfwAbhZovG-33" target="wwV5foe9snUfwAbhZovG-27" edge="1">
          <mxGeometry width="50" height="50" relative="1" as="geometry">
            <mxPoint x="390" y="330" as="sourcePoint" />
            <mxPoint x="440" y="280" as="targetPoint" />
          </mxGeometry>
        </mxCell>
        <mxCell id="wwV5foe9snUfwAbhZovG-65" value="使用" style="edgeLabel;html=1;align=center;verticalAlign=middle;resizable=0;points=[];" parent="wwV5foe9snUfwAbhZovG-64" vertex="1" connectable="0">
          <mxGeometry x="-0.1736" y="-2" relative="1" as="geometry">
            <mxPoint y="-1" as="offset" />
          </mxGeometry>
        </mxCell>
        <mxCell id="wwV5foe9snUfwAbhZovG-67" value="" style="endArrow=classic;html=1;rounded=0;exitX=0.5;exitY=1;exitDx=0;exitDy=0;exitPerimeter=0;" parent="1" source="wwV5foe9snUfwAbhZovG-51" edge="1">
          <mxGeometry width="50" height="50" relative="1" as="geometry">
            <mxPoint x="390" y="330" as="sourcePoint" />
            <mxPoint x="590" y="330" as="targetPoint" />
          </mxGeometry>
        </mxCell>
        <mxCell id="wwV5foe9snUfwAbhZovG-68" value="获取" style="edgeLabel;html=1;align=center;verticalAlign=middle;resizable=0;points=[];" parent="wwV5foe9snUfwAbhZovG-67" vertex="1" connectable="0">
          <mxGeometry x="-0.1318" y="2" relative="1" as="geometry">
            <mxPoint as="offset" />
          </mxGeometry>
        </mxCell>
        <mxCell id="1PTWwt2aOXl4kpXpRzPO-1" value="" style="endArrow=none;dashed=1;html=1;rounded=0;exitX=1;exitY=0.5;exitDx=0;exitDy=0;exitPerimeter=0;entryX=0.5;entryY=1;entryDx=0;entryDy=0;entryPerimeter=0;" edge="1" parent="1" source="wwV5foe9snUfwAbhZovG-27" target="wwV5foe9snUfwAbhZovG-51">
          <mxGeometry width="50" height="50" relative="1" as="geometry">
            <mxPoint x="390" y="330" as="sourcePoint" />
            <mxPoint x="440" y="280" as="targetPoint" />
          </mxGeometry>
        </mxCell>
        <mxCell id="1PTWwt2aOXl4kpXpRzPO-3" value="匹配" style="edgeLabel;html=1;align=center;verticalAlign=middle;resizable=0;points=[];" vertex="1" connectable="0" parent="1PTWwt2aOXl4kpXpRzPO-1">
          <mxGeometry x="-0.312" y="-2" relative="1" as="geometry">
            <mxPoint as="offset" />
          </mxGeometry>
        </mxCell>
      </root>
    </mxGraphModel>
  </diagram>
</mxfile>
